<svg xmlns="http://www.w3.org/2000/svg" xmlns:xlink="http://www.w3.org/1999/xlink" id="Capa_1" x="0px" y="0px" viewBox="0 0 971.8 235" style="enable-background:new 0 0 971.8 235;" xml:space="preserve"> <style type="text/css"> .st0{fill:#1a5c2e;} .st1{fill:url(#SVGID_1_);} .st2{opacity:0.79;fill:url(#SVGID_00000122001062592934843630000007345824096134363301_);enable-background:new ;} .st3{fill:url(#SVGID_00000036222245857333586400000017437157844976688792_);} </style> <g> <g> <g> <path class="st0" d="M318.1,62.9c1.6,0.8,2.8,2.2,3.4,4c0.6,1.9,0.6,3.7-0.2,5.5l-22.6,55.7c-2,4.7-4.9,8.4-8.7,11.2 c-3.8,2.8-8.1,4.2-12.7,4.2s-8.8-1.4-12.6-4.2c-3.8-2.8-6.7-6.5-8.7-11.2l-22.6-55.7c-0.7-1.8-0.8-3.7-0.2-5.5 c0.6-1.9,1.8-3.2,3.4-4c1.6-0.8,3.3-0.9,4.9-0.2c1.7,0.7,2.9,2,3.6,3.8l22.6,55.5c0.9,2.1,2.2,3.8,3.9,5.1 c1.7,1.3,3.6,1.9,5.6,1.9c2.1,0,4-0.6,5.7-1.9c1.7-1.3,3-2.9,3.9-5.1l22.6-55.5c0.7-1.8,1.9-3.1,3.6-3.8 C314.8,62,316.5,62,318.1,62.9z"></path> <path class="st0" d="M405.7,106.6c-1.3,1.2-2.8,1.8-4.8,1.8h-55c1.1,6.8,4.1,12.2,9.2,16.4c5.1,4.2,11.3,6.2,18.6,6.2 c2.9,0,5.9-0.5,9-1.6c3.1-1.1,5.7-2.4,7.7-3.9c1.4-1.1,2.9-1.6,4.8-1.6c1.8,0,3.3,0.5,4.3,1.4c1.7,1.4,2.6,3.1,2.6,4.9 c0,1.7-0.8,3.2-2.3,4.3c-3.3,2.6-7.4,4.7-12.2,6.4c-4.9,1.6-9.5,2.5-14,2.5c-7.9,0-15-1.7-21.3-5.1c-6.3-3.4-11.2-8.2-14.7-14.3 s-5.3-13-5.3-20.7s1.7-14.6,5-20.8c3.3-6.1,8-10.9,13.9-14.3s12.7-5.1,20.2-5.1c7.4,0,13.8,1.6,19.3,4.9 c5.4,3.3,9.6,7.9,12.4,13.8c2.9,5.9,4.3,12.6,4.3,20.3C407.5,103.9,406.9,105.4,405.7,106.6z M354.3,81.4 c-4.4,3.9-7.2,9-8.3,15.5h48.2c-0.9-6.5-3.3-11.6-7.2-15.5c-4-3.9-9.1-5.8-15.5-5.8C364.5,75.6,358.7,77.5,354.3,81.4z"></path> <path class="st0" d="M437,139.5c-3.3-2.3-5.9-5.5-7.7-9.6c-1.8-4.1-2.8-8.7-2.8-13.8v-79c0-2.1,0.7-3.9,2-5.2 c1.4-1.4,3.1-2,5.2-2s3.9,0.7,5.2,2c1.4,1.4,2,3.1,2,5.2v79c0,3.6,0.7,6.5,2,8.8c1.4,2.3,3.1,3.5,5.2,3.5h3.6 c1.9,0,3.5,0.7,4.7,2c1.2,1.4,1.8,3.1,1.8,5.2c0,2.1-0.9,3.9-2.8,5.2c-1.8,1.4-4.2,2-7.1,2H448 C444.1,142.9,440.4,141.7,437,139.5z"></path> <path class="st0" d="M489.7,138.3c-6.1-3.4-10.8-8.2-14.2-14.3c-3.4-6.1-5.1-13-5.1-20.7c0-7.8,1.7-14.8,5.1-20.8 c3.4-6.1,8.1-10.8,14.2-14.3c6.1-3.4,13-5.1,20.7-5.1c7.6,0,14.5,1.7,20.5,5.1s10.8,8.2,14.2,14.3c3.4,6.1,5.1,13,5.1,20.8 c0,7.7-1.7,14.6-5.1,20.7c-3.4,6.1-8.1,10.8-14.1,14.3c-6,3.4-12.9,5.1-20.6,5.1C502.7,143.5,495.8,141.7,489.7,138.3z M523.7,127c3.9-2.3,6.9-5.5,9.1-9.6c2.2-4.1,3.3-8.8,3.3-14s-1.1-9.9-3.3-14s-5.2-7.4-9.1-9.7c-3.9-2.3-8.3-3.5-13.2-3.5 c-4.9,0-9.3,1.2-13.2,3.5c-3.9,2.3-7,5.6-9.2,9.7c-2.2,4.2-3.3,8.8-3.3,14s1.1,9.9,3.3,14c2.2,4.1,5.3,7.3,9.2,9.6 c3.9,2.3,8.3,3.5,13.2,3.5C515.3,130.4,519.8,129.3,523.7,127z"></path> <path class="st0" d="M625.5,68.3c6,3.4,10.8,8.2,14.2,14.3c3.4,6.1,5.1,13,5.1,20.8v31.3c0,7.6-1.7,14.6-5.1,20.8 c-3.4,6.3-8.1,11.2-14.3,14.8c-6.1,3.6-13.1,5.4-20.8,5.4c-6.9,0-13.4-1.4-19.4-4.1c-6-2.8-11-6.7-15.1-11.8 c-1.1-1.4-1.6-2.7-1.6-4.1c0-2,1-3.8,3-5.2c1.4-0.9,8.4-0.3,10,1.7c2.6,3.4,5.9,6,9.8,7.7c4,1.8,8.4,2.7,13.5,2.7 c4.7,0,9-1.1,12.9-3.4c3.9-2.3,6.9-5.6,9.3-10c2.3-4.4,3.5-9.6,3.5-15.7v-7.1c-3,5.3-6.9,9.5-11.9,12.4c-4.9,3-10.5,4.5-16.6,4.5 c-7.1,0-13.5-1.7-19.2-5.1c-5.6-3.4-10-8.2-13.2-14.3c-3.1-6.1-4.7-13-4.7-20.7c0-7.8,1.7-14.8,5.1-20.8 c3.4-6.1,8.1-10.8,14.2-14.3c6.1-3.4,13-5.1,20.7-5.1C612.6,63.1,619.4,64.8,625.5,68.3z M618.2,127c3.9-2.3,6.9-5.5,9.1-9.6 c2.2-4.1,3.3-8.8,3.3-14s-1.1-9.9-3.3-14s-5.2-7.4-9.1-9.7c-3.9-2.3-8.3-3.5-13.2-3.5s-9.3,1.2-13.2,3.5s-7,5.6-9.2,9.7 c-2.2,4.2-3.3,8.8-3.3,14s1.1,9.9,3.3,14s5.3,7.3,9.2,9.6s8.3,3.5,13.2,3.5C609.9,130.4,614.3,129.3,618.2,127z"></path> <path class="st0" d="M668.7,140.8c-1.4-1.4-2.1-3.2-2.1-5.3V71.1c0-2.2,0.7-4,2.1-5.4c1.4-1.4,3.2-2,5.3-2c2.2,0,4,0.7,5.4,2 c1.4,1.4,2,3.1,2,5.4v64.4c0,2.1-0.7,3.9-2,5.3c-1.4,1.4-3.1,2.1-5.4,2.1C671.9,142.9,670.1,142.2,668.7,140.8z"></path> <path class="st0" d="M764.2,68.3c6,3.4,10.8,8.2,14.2,14.3c3.4,6.1,5.1,13,5.1,20.8v31.3c0,7.6-1.7,14.6-5.1,20.8 c-3.4,6.3-8.1,11.2-14.3,14.8c-6.1,3.6-13.1,5.4-20.8,5.4c-6.9,0-13.4-1.4-19.4-4.1c-6-2.8-11-6.7-15.1-11.8 c-1.1-1.4-1.6-2.7-1.6-4.1c0-2,1-3.8,3-5.2c1.4-0.9,2.7-1.3,4.1-1.3c2.4,0,4.4,1,5.9,3c2.6,3.4,5.9,6,9.8,7.7 c4,1.8,8.4,2.7,13.5,2.7c4.7,0,9-1.1,12.9-3.4c3.9-2.3,6.9-5.6,9.3-10c2.3-4.4,3.5-9.6,3.5-15.7v-7.1c-3,5.3-6.9,9.5-11.9,12.4 c-4.9,3-10.5,4.5-16.6,4.5c-7.1,0-13.5-1.7-19.2-5.1c-5.6-3.4-10-8.2-13.2-14.3c-3.1-6.1-4.7-13-4.7-20.7 c0-7.8,1.7-14.8,5.1-20.8c3.4-6.1,8.1-10.8,14.2-14.3c6.1-3.4,13-5.1,20.7-5.1C751.3,63.1,758.1,64.8,764.2,68.3z M756.9,127 c3.9-2.3,6.9-5.5,9.1-9.6c2.2-4.1,3.3-8.8,3.3-14s-1.1-9.9-3.3-14s-5.2-7.4-9.1-9.7c-3.9-2.3-8.3-3.5-13.2-3.5s-9.3,1.2-13.2,3.5 s-7,5.6-9.2,9.7c-2.2,4.2-3.3,8.8-3.3,14s1.1,9.9,3.3,14s5.3,7.3,9.2,9.6s8.3,3.5,13.2,3.5C748.6,130.4,753,129.3,756.9,127z"></path> </g> <g> <g> <linearGradient id="SVGID_1_" gradientUnits="userSpaceOnUse" x1="3786.3069" y1="7726.7036" x2="3786.3069" y2="7932.3369" gradientTransform="matrix(1 0 0 -1 -3682.9187 7947.2031)"> <stop offset="0.1455" style="stop-color:#00794C"></stop> <stop offset="0.2606" style="stop-color:#057D4A"></stop> <stop offset="0.4049" style="stop-color:#158745"></stop> <stop offset="0.5648" style="stop-color:#2E983D"></stop> <stop offset="0.7358" style="stop-color:#52B031"></stop> <stop offset="0.9139" style="stop-color:#7FCE22"></stop> <stop offset="1" style="stop-color:#98DF1A"></stop> </linearGradient> <path class="st1" d="M92.1,199.1c-1,0-2-0.3-2.9-0.7c-1.5-0.9-2.6-2.3-3-4.1c-2.7-12.5-8.5-25-16.8-36.2c-8.1,0.9-14.2,1-17,0.7 c-2-0.2-5.8-0.6-6.8-3.7c-0.9-3,1.4-5,3.6-6.8c0.7-0.6,1.6-1.4,2.4-2.1c1-1,2.4-2,4.3-3.2c-13.2-12.1-28.9-20.6-44.8-24 c-1.7-0.4-3.2-1.5-4-3s-1-3.3-0.4-5c3.4-9.4,8.8-17.8,15.9-25c13.3-13.3,31.8-20.6,50.7-20c19.1,0.6,36.6,9,49.3,23.4 c5.8,6.6,10.2,14.2,13.1,22.6c0.6,1.9-0.4,3.9-2.2,4.6c-1.9,0.6-3.9-0.4-4.6-2.2c-2.6-7.5-6.5-14.3-11.7-20.2 c-11.3-12.9-27-20.4-44.1-21c-17.1-0.5-33.6,6-45.6,18c-6,6-10.7,13.1-13.7,21.1c17.4,4,34.6,13.6,48.7,27.1 c17.8-8.4,50.7-17.1,72-7.9c5.8-3.4,11.1-7.2,15.5-11.7c21.7-21.7,32.5-47.8,37.7-65.9c6.2-21.5,6-36.4,4.8-39.5 c-3.1-1.2-18-1.4-39.5,4.8c-18.1,5.2-44.2,16-65.9,37.7c-1.4,1.4-3.7,1.4-5.1,0s-1.4-3.7,0-5.1c23.4-23.4,51.4-34.7,70.8-40 c18-5,39.9-7.6,44.9-2.5c5,5,2.5,26.9-2.5,44.9c-5.4,19.4-16.7,47.4-40,70.8c-4.8,4.8-10.6,9-16.8,12.7 c-0.5,16.3-6,30.5-16.3,42.2c-7.6,8.5-17.2,15.1-27.9,18.9C93.4,199,92.8,199.1,92.1,199.1z M77.6,157.1 c7.4,10.7,12.7,22.5,15.4,34.4c9.1-3.5,17.1-9.1,23.6-16.5c8.3-9.4,13.1-20.6,14.3-33.4C113.3,150.1,93.2,154.8,77.6,157.1z M61.1,148.2c-2,1.2-3.6,2.2-4.4,3.1c-0.2,0.2-0.4,0.3-0.5,0.5c2,0,4.7-0.1,7.9-0.4C63.1,150.3,62.1,149.2,61.1,148.2z M67.8,144.9c1.7,1.8,3.3,3.7,4.8,5.6c14.9-1.9,35.2-6.2,52.9-14.4C107.4,131.8,82.5,138.5,67.8,144.9z M192.8,14.5L192.8,14.5 L192.8,14.5z M192.4,14.1L192.4,14.1L192.4,14.1z"></path> </g> <linearGradient id="SVGID_00000136395883339332448920000017540243330453749939_" gradientUnits="userSpaceOnUse" x1="70.7757" y1="5.9333" x2="63.3875" y2="13.3216" gradientTransform="matrix(1 0 0 -1 0 159.2343)"> <stop offset="0" style="stop-color:#1D1D1B;stop-opacity:0"></stop> <stop offset="0.2168" style="stop-color:#1D1E1E;stop-opacity:0.1734"></stop> <stop offset="0.3976" style="stop-color:#1B2229;stop-opacity:0.3181"></stop> <stop offset="0.5655" style="stop-color:#19283A;stop-opacity:0.4524"></stop> <stop offset="0.7256" style="stop-color:#163052;stop-opacity:0.5804"></stop> <stop offset="0.8787" style="stop-color:#123B72;stop-opacity:0.7029"></stop> <stop offset="1" style="stop-color:#0E4690;stop-opacity:0.8"></stop> </linearGradient> <path style="opacity:0.79;fill:url(#SVGID_00000136395883339332448920000017540243330453749939_);enable-background:new ;" d=" M72.7,150.6c-3.2,0.4-2.3,4.9-4.9,5.1c-1-1.1-5.7-6.4-6.7-7.4c1.9-1.1,4.1-2.2,6.8-3.3C69.5,146.7,71.2,148.6,72.7,150.6z"></path> <linearGradient id="SVGID_00000080181224666676937570000017570458757213257143_" gradientUnits="userSpaceOnUse" x1="134.4132" y1="7.7129" x2="133.0979" y2="21.7863" gradientTransform="matrix(1 0 0 -1 0 159.2343)"> <stop offset="0" style="stop-color:#1D1D1B;stop-opacity:0"></stop> <stop offset="0.2168" style="stop-color:#1D1E1E;stop-opacity:0.1734"></stop> <stop offset="0.3976" style="stop-color:#1B2229;stop-opacity:0.3181"></stop> <stop offset="0.5655" style="stop-color:#19283A;stop-opacity:0.4524"></stop> <stop offset="0.7256" style="stop-color:#163052;stop-opacity:0.5804"></stop> <stop offset="0.8787" style="stop-color:#123B72;stop-opacity:0.7029"></stop> <stop offset="1" style="stop-color:#0E4690;stop-opacity:0.8"></stop> </linearGradient> <path style="fill:url(#SVGID_00000080181224666676937570000017570458757213257143_);" d="M138.3,137.6c-0.1,4.4-0.6,8.6-1.5,12.7 c-3.2,0.4-6.6,0.7-7.6,0.9c0.8-3.1,1.3-6.2,1.6-9.5c1.6-0.8,3.3-1.6,4.9-2.5l0,0c0.5-0.3,0.9-0.5,1.4-0.8 C137.6,138,137.9,137.8,138.3,137.6z"></path> </g> </g> <path class="st0" d="M956.4,9.1C956.4,9.1,956.4,9.1,956.4,9.1c-0.1,0.1-0.2,0.2-0.4,0.2C942.2,17,928.4,25.2,915,33.7 c-18.6,11.8-36.7,24.3-53.8,37.2c-1.5,1.1-3,2.3-4.5,3.4c-4.1-15.6-8.9-31.4-14.3-47.1c-1.1-3.3-4-5.4-7.4-5.4 c-0.9,0-1.8,0.1-2.6,0.4c-1.8,0.6-3.2,1.7-4,3.2c-0.8,1.5-0.9,3.4-0.3,5.2c0.7,2.2,1.4,4.4,2.2,6.6c1.7,5.1,3.4,10.3,4.9,15.5 c2.1,7.3,4.1,14.8,6.1,22c0.9,3.2,1.7,6.3,2.6,9.5c-0.7,0.5-1.4,1.1-2,1.6l-1,0.8c-14.5,11.7-26.2,21.7-36.8,31.5 c-12,11.2-21.1,19.8-29.4,28.2c-9.2,9.2-18.2,18.9-25.8,27.2c-4.8,5.2-9.5,10.7-14,15.9c-1.8,2.1-3.6,4.2-5.4,6.2 c-0.9,1-1.7,2-2.6,3c-6.5,7.5-13.3,15.2-18.3,24.2l-0.3,0.6v1.4c0,2.8,2.2,5,5,5l0,0c1.4,0,2.7-0.6,3.7-1.6l0.7-0.7 c1.4-1.6,2.9-3.1,4.3-4.7c0.2-0.2,0.3-0.4,0.4-0.6c0.3-0.4,0.6-0.9,1-1.2c0.1-0.1,0.2-0.2,0.3-0.3c0.5-0.5,0.9-1,1.2-1.4l0.2-0.3 c1.6-2,3.2-4,4.8-6c3.3-4.2,6.8-8.6,10.2-12.8c13.6-16.4,28.3-32.4,44.7-48.9c19.4-19.5,40.1-38.3,61.7-55.8 c3.4,15.2,6.1,30.7,8.6,45.8l1,5.9c1.2,7.1,2.5,14.3,3.8,21.2l0.6,3.4c0.5,2.9,2.6,4.7,5.5,4.7c0.3,0,0.6,0,0.8,0 c3-0.3,5-2.6,5-5.8c0-0.4,0-0.8,0-1.2c-0.2-16-1.9-32.5-5.4-50.6c-1.6-8.5-3.5-17.1-5.3-25.4c-0.6-2.8-1.2-5.5-1.8-8.3 c3-2.2,6-4.5,9-6.7c5.7-4.3,11.5-8.7,17.4-12.9c17.3-12.5,35.4-24.3,55.5-36.1c2.8-1.6,5.6-3.2,8.4-4.9l2.9-1.7 c0.4-0.2,0.7-0.5,1-0.7c0.6-0.1,1.1-0.4,1.4-0.6c0.7-0.4,1.5-0.8,2.2-1.2c1.1-0.6,2.3-1.2,3.4-1.9c0.8-0.5,1.4-1.1,1.9-1.7 c0.2-0.2,0.4-0.4,0.5-0.5l0,0c0.5-0.5,0.8-1.1,0.8-1.8v-3.5c0-1.4-1.1-2.5-2.5-2.5h-3.6C957.3,8.6,956.8,8.8,956.4,9.1z"></path> </g> </svg>